<svg width="1200" height="34" viewBox="0 0 1200 34" fill="none" xmlns="http://www.w3.org/2000/svg">
<path d="M13.755 20.765H4.89V17.69H13.755V20.765ZM8.865 8.405H9.795L3.585 26H0.135L7.62 5H11.025L18.525 26H15.06L8.865 8.405ZM24.6328 26.3C23.5328 26.3 22.5728 26.185 21.7528 25.955C20.9328 25.715 20.2078 25.44 19.5778 25.13L19.9078 22.145C20.5078 22.535 21.1928 22.885 21.9628 23.195C22.7328 23.495 23.5828 23.645 24.5128 23.645C25.3328 23.645 25.9578 23.515 26.3878 23.255C26.8178 22.985 27.0328 22.575 27.0328 22.025C27.0328 21.595 26.9078 21.245 26.6578 20.975C26.4078 20.695 26.0678 20.46 25.6378 20.27C25.2178 20.07 24.7428 19.88 24.2128 19.7C23.3828 19.42 22.6328 19.105 21.9628 18.755C21.2928 18.395 20.7578 17.935 20.3578 17.375C19.9678 16.815 19.7728 16.09 19.7728 15.2C19.7728 14.38 19.9828 13.64 20.4028 12.98C20.8228 12.31 21.4428 11.78 22.2628 11.39C23.0828 11 24.1028 10.805 25.3228 10.805C26.2828 10.805 27.1128 10.91 27.8128 11.12C28.5228 11.33 29.1628 11.59 29.7328 11.9L29.4028 14.825C28.8128 14.395 28.1978 14.04 27.5578 13.76C26.9178 13.47 26.1928 13.325 25.3828 13.325C24.6628 13.325 24.0928 13.465 23.6728 13.745C23.2628 14.025 23.0578 14.44 23.0578 14.99C23.0578 15.61 23.3178 16.065 23.8378 16.355C24.3578 16.645 25.1678 16.99 26.2678 17.39C26.8478 17.6 27.3878 17.83 27.8878 18.08C28.3878 18.33 28.8278 18.625 29.2078 18.965C29.5878 19.305 29.8828 19.71 30.0928 20.18C30.3028 20.65 30.4078 21.21 30.4078 21.86C30.4078 22.7 30.2078 23.455 29.8078 24.125C29.4078 24.795 28.7828 25.325 27.9328 25.715C27.0828 26.105 25.9828 26.3 24.6328 26.3ZM32.9705 26V3.5H36.3155V17.435L41.2505 11.105H45.1205L39.5105 18.185L45.2555 26H41.3705L36.3155 19.04V26H32.9705Z" fill="#F9FAFB"/>
<path d="M47.5744 26V5H60.7894V8.3H51.1144V13.385H58.6894V16.685H51.1144V22.7H61.0744V26H47.5744ZM62.4537 26L67.4787 18.56L62.4987 11.105H66.4137L69.5037 15.995L72.3387 11.105H76.3137L71.3787 18.485L76.3737 26H72.4437L69.3537 21.125L66.3837 26H62.4537ZM78.4692 33.26V11.105H81.1392L81.7842 13.91L80.7942 13.475C81.4642 12.675 82.2192 12.04 83.0592 11.57C83.9092 11.09 84.9442 10.85 86.1642 10.85C87.5942 10.85 88.7992 11.2 89.7792 11.9C90.7692 12.6 91.5192 13.535 92.0292 14.705C92.5392 15.875 92.7942 17.165 92.7942 18.575C92.7942 19.985 92.5442 21.275 92.0442 22.445C91.5442 23.615 90.8042 24.55 89.8242 25.25C88.8442 25.95 87.6242 26.3 86.1642 26.3C84.9942 26.3 84.0042 26.11 83.1942 25.73C82.3942 25.35 81.6792 24.76 81.0492 23.96L81.8142 23.285V33.26H78.4692ZM85.6242 23.48C86.8042 23.48 87.7242 23.035 88.3842 22.145C89.0442 21.245 89.3742 20.055 89.3742 18.575C89.3742 17.085 89.0442 15.895 88.3842 15.005C87.7242 14.115 86.8042 13.67 85.6242 13.67C84.7842 13.67 84.0642 13.87 83.4642 14.27C82.8742 14.66 82.4242 15.22 82.1142 15.95C81.8042 16.68 81.6492 17.555 81.6492 18.575C81.6492 19.615 81.8042 20.5 82.1142 21.23C82.4242 21.96 82.8742 22.52 83.4642 22.91C84.0642 23.29 84.7842 23.48 85.6242 23.48ZM102.631 26.3C100.851 26.3 99.3614 25.94 98.1614 25.22C96.9714 24.5 96.0714 23.55 95.4614 22.37C94.8614 21.18 94.5614 19.875 94.5614 18.455C94.5614 17.085 94.8414 15.825 95.4014 14.675C95.9714 13.515 96.7964 12.59 97.8764 11.9C98.9664 11.2 100.286 10.85 101.836 10.85C103.196 10.85 104.356 11.125 105.316 11.675C106.276 12.225 107.006 12.985 107.506 13.955C108.016 14.915 108.271 16.015 108.271 17.255C108.271 17.535 108.251 17.83 108.211 18.14C108.181 18.44 108.136 18.75 108.076 19.07H98.0264C98.1664 20.16 98.4714 21.025 98.9414 21.665C99.4114 22.305 99.9964 22.77 100.696 23.06C101.396 23.34 102.151 23.48 102.961 23.48C103.761 23.48 104.531 23.385 105.271 23.195C106.021 22.995 106.716 22.725 107.356 22.385L107.611 25.16C107.041 25.44 106.336 25.7 105.496 25.94C104.656 26.18 103.701 26.3 102.631 26.3ZM98.1764 16.79H104.851C104.851 16.25 104.746 15.745 104.536 15.275C104.336 14.795 104.011 14.41 103.561 14.12C103.121 13.82 102.541 13.67 101.821 13.67C100.771 13.67 99.9514 13.955 99.3614 14.525C98.7814 15.095 98.3864 15.85 98.1764 16.79ZM110.872 26V11.105H113.902L114.067 13.01C114.587 12.4 115.192 11.88 115.882 11.45C116.572 11.02 117.317 10.805 118.117 10.805C118.357 10.805 118.582 10.83 118.792 10.88L118.522 14.285C118.332 14.235 118.142 14.205 117.952 14.195C117.762 14.175 117.567 14.165 117.367 14.165C116.687 14.165 116.062 14.32 115.492 14.63C114.922 14.94 114.522 15.3 114.292 15.71V26H110.872ZM125.592 26.3C124.652 26.3 123.892 26.115 123.312 25.745C122.732 25.375 122.307 24.905 122.037 24.335C121.767 23.755 121.632 23.15 121.632 22.52V13.82H119.352L119.652 11.105H121.632V7.685L124.977 7.34V11.105H128.487V13.82H124.977V20.945C124.977 21.775 125.027 22.375 125.127 22.745C125.227 23.105 125.457 23.335 125.817 23.435C126.177 23.525 126.757 23.57 127.557 23.57H128.457L128.172 26.3H125.592ZM135.111 26.3C134.011 26.3 133.051 26.185 132.231 25.955C131.411 25.715 130.686 25.44 130.056 25.13L130.386 22.145C130.986 22.535 131.671 22.885 132.441 23.195C133.211 23.495 134.061 23.645 134.991 23.645C135.811 23.645 136.436 23.515 136.866 23.255C137.296 22.985 137.511 22.575 137.511 22.025C137.511 21.595 137.386 21.245 137.136 20.975C136.886 20.695 136.546 20.46 136.116 20.27C135.696 20.07 135.221 19.88 134.691 19.7C133.861 19.42 133.111 19.105 132.441 18.755C131.771 18.395 131.236 17.935 130.836 17.375C130.446 16.815 130.251 16.09 130.251 15.2C130.251 14.38 130.461 13.64 130.881 12.98C131.301 12.31 131.921 11.78 132.741 11.39C133.561 11 134.581 10.805 135.801 10.805C136.761 10.805 137.591 10.91 138.291 11.12C139.001 11.33 139.641 11.59 140.211 11.9L139.881 14.825C139.291 14.395 138.676 14.04 138.036 13.76C137.396 13.47 136.671 13.325 135.861 13.325C135.141 13.325 134.571 13.465 134.151 13.745C133.741 14.025 133.536 14.44 133.536 14.99C133.536 15.61 133.796 16.065 134.316 16.355C134.836 16.645 135.646 16.99 136.746 17.39C137.326 17.6 137.866 17.83 138.366 18.08C138.866 18.33 139.306 18.625 139.686 18.965C140.066 19.305 140.361 19.71 140.571 20.18C140.781 20.65 140.886 21.21 140.886 21.86C140.886 22.7 140.686 23.455 140.286 24.125C139.886 24.795 139.261 25.325 138.411 25.715C137.561 26.105 136.461 26.3 135.111 26.3Z" fill="#FFCC4A"/>
<path d="M455.841 17.708C455.921 17.7027 455.993 17.732 456.057 17.796L456.537 18.308C456.233 18.66 455.86 18.9347 455.417 19.132C454.98 19.324 454.452 19.42 453.833 19.42C453.31 19.42 452.833 19.3293 452.401 19.148C451.974 18.9667 451.606 18.7133 451.297 18.388C450.993 18.0627 450.756 17.676 450.585 17.228C450.42 16.78 450.337 16.2893 450.337 15.756C450.337 15.2173 450.428 14.724 450.609 14.276C450.79 13.8227 451.044 13.436 451.369 13.116C451.694 12.7907 452.078 12.54 452.521 12.364C452.969 12.1827 453.454 12.092 453.977 12.092C454.558 12.092 455.049 12.1827 455.449 12.364C455.854 12.54 456.209 12.7773 456.513 13.076L456.145 13.596C456.118 13.628 456.084 13.66 456.041 13.692C455.998 13.724 455.948 13.74 455.889 13.74C455.814 13.74 455.734 13.7107 455.649 13.652C455.569 13.5933 455.462 13.5293 455.329 13.46C455.196 13.3853 455.025 13.3187 454.817 13.26C454.614 13.196 454.358 13.164 454.049 13.164C453.67 13.164 453.332 13.2253 453.033 13.348C452.734 13.4653 452.478 13.636 452.265 13.86C452.052 14.084 451.889 14.356 451.777 14.676C451.665 14.996 451.609 15.356 451.609 15.756C451.609 16.1667 451.665 16.5347 451.777 16.86C451.894 17.18 452.054 17.4493 452.257 17.668C452.46 17.8867 452.7 18.0547 452.977 18.172C453.26 18.284 453.566 18.34 453.897 18.34C454.174 18.34 454.406 18.3187 454.593 18.276C454.78 18.2333 454.942 18.1827 455.081 18.124C455.225 18.06 455.353 17.9907 455.465 17.916C455.582 17.8413 455.708 17.772 455.841 17.708ZM447.953 15.772C447.953 15.2333 448.022 14.716 448.161 14.22C448.3 13.7187 448.497 13.252 448.753 12.82C449.009 12.3827 449.313 11.988 449.665 11.636C450.022 11.2787 450.417 10.972 450.849 10.716C451.281 10.46 451.745 10.2627 452.241 10.124C452.737 9.98533 453.254 9.916 453.793 9.916C454.332 9.916 454.849 9.98533 455.345 10.124C455.846 10.2627 456.313 10.46 456.745 10.716C457.177 10.972 457.572 11.2787 457.929 11.636C458.286 11.988 458.59 12.3827 458.841 12.82C459.097 13.252 459.294 13.7187 459.433 14.22C459.572 14.716 459.641 15.2333 459.641 15.772C459.641 16.3053 459.572 16.8227 459.433 17.324C459.294 17.82 459.097 18.284 458.841 18.716C458.59 19.148 458.286 19.5427 457.929 19.9C457.572 20.252 457.177 20.556 456.745 20.812C456.313 21.068 455.846 21.2653 455.345 21.404C454.849 21.5427 454.332 21.612 453.793 21.612C453.254 21.612 452.737 21.5427 452.241 21.404C451.745 21.2653 451.281 21.068 450.849 20.812C450.417 20.556 450.022 20.252 449.665 19.9C449.313 19.5427 449.009 19.148 448.753 18.716C448.497 18.284 448.3 17.82 448.161 17.324C448.022 16.828 447.953 16.3107 447.953 15.772ZM448.761 15.772C448.761 16.2467 448.82 16.7027 448.937 17.14C449.054 17.5773 449.22 17.988 449.433 18.372C449.652 18.7507 449.913 19.0947 450.217 19.404C450.526 19.7133 450.865 19.98 451.233 20.204C451.606 20.4227 452.009 20.5933 452.441 20.716C452.873 20.8333 453.324 20.892 453.793 20.892C454.262 20.892 454.713 20.8333 455.145 20.716C455.582 20.5933 455.988 20.4227 456.361 20.204C456.74 19.98 457.081 19.7133 457.385 19.404C457.694 19.0947 457.958 18.7507 458.177 18.372C458.396 17.988 458.564 17.5773 458.681 17.14C458.804 16.7027 458.865 16.2467 458.865 15.772C458.865 15.0573 458.732 14.388 458.465 13.764C458.204 13.1347 457.844 12.588 457.385 12.124C456.932 11.6547 456.396 11.2867 455.777 11.02C455.158 10.748 454.497 10.612 453.793 10.612C453.324 10.612 452.873 10.6733 452.441 10.796C452.009 10.9187 451.606 11.092 451.233 11.316C450.865 11.5347 450.526 11.8013 450.217 12.116C449.913 12.4307 449.652 12.78 449.433 13.164C449.22 13.5427 449.054 13.9533 448.937 14.396C448.82 14.8387 448.761 15.2973 448.761 15.772ZM468.338 20.148C468.492 20.148 468.615 20.1933 468.706 20.284C468.796 20.3747 468.842 20.492 468.842 20.636V21.5H461.194V21.012C461.194 20.9107 461.215 20.8067 461.258 20.7C461.3 20.5933 461.367 20.4947 461.458 20.404L465.13 16.716C465.434 16.4067 465.711 16.1107 465.962 15.828C466.212 15.54 466.426 15.252 466.602 14.964C466.778 14.676 466.914 14.3853 467.01 14.092C467.106 13.7933 467.154 13.476 467.154 13.14C467.154 12.804 467.1 12.5107 466.994 12.26C466.887 12.004 466.74 11.7933 466.554 11.628C466.372 11.4627 466.156 11.34 465.906 11.26C465.655 11.1747 465.386 11.132 465.098 11.132C464.804 11.132 464.535 11.1747 464.29 11.26C464.044 11.3453 463.826 11.4653 463.634 11.62C463.447 11.7693 463.29 11.948 463.162 12.156C463.034 12.364 462.943 12.5933 462.89 12.844C462.826 13.0307 462.738 13.156 462.626 13.22C462.519 13.2787 462.367 13.2947 462.17 13.268L461.426 13.14C461.5 12.6173 461.644 12.156 461.858 11.756C462.076 11.3507 462.348 11.012 462.674 10.74C463.004 10.468 463.38 10.2627 463.802 10.124C464.223 9.98 464.679 9.908 465.17 9.908C465.655 9.908 466.108 9.98 466.53 10.124C466.951 10.268 467.316 10.4787 467.626 10.756C467.935 11.028 468.178 11.3613 468.354 11.756C468.53 12.1507 468.618 12.5987 468.618 13.1C468.618 13.5267 468.554 13.924 468.426 14.292C468.298 14.6547 468.124 15.0013 467.906 15.332C467.687 15.6627 467.434 15.9853 467.146 16.3C466.863 16.6147 466.562 16.932 466.242 17.252L463.218 20.34C463.431 20.2813 463.647 20.236 463.866 20.204C464.084 20.1667 464.295 20.148 464.498 20.148H468.338ZM478.523 15.772C478.523 16.7747 478.414 17.644 478.195 18.38C477.982 19.1107 477.688 19.716 477.315 20.196C476.942 20.676 476.499 21.0333 475.987 21.268C475.48 21.5027 474.936 21.62 474.355 21.62C473.768 21.62 473.222 21.5027 472.715 21.268C472.214 21.0333 471.776 20.676 471.403 20.196C471.03 19.716 470.736 19.1107 470.523 18.38C470.31 17.644 470.203 16.7747 470.203 15.772C470.203 14.7693 470.31 13.9 470.523 13.164C470.736 12.428 471.03 11.82 471.403 11.34C471.776 10.8547 472.214 10.4947 472.715 10.26C473.222 10.0253 473.768 9.908 474.355 9.908C474.936 9.908 475.48 10.0253 475.987 10.26C476.499 10.4947 476.942 10.8547 477.315 11.34C477.688 11.82 477.982 12.428 478.195 13.164C478.414 13.9 478.523 14.7693 478.523 15.772ZM477.043 15.772C477.043 14.8973 476.968 14.164 476.819 13.572C476.675 12.9747 476.478 12.4947 476.227 12.132C475.982 11.7693 475.696 11.5107 475.371 11.356C475.046 11.196 474.707 11.116 474.355 11.116C474.003 11.116 473.664 11.196 473.339 11.356C473.014 11.5107 472.728 11.7693 472.483 12.132C472.238 12.4947 472.04 12.9747 471.891 13.572C471.747 14.164 471.675 14.8973 471.675 15.772C471.675 16.6467 471.747 17.38 471.891 17.972C472.04 18.564 472.238 19.0413 472.483 19.404C472.728 19.7667 473.014 20.028 473.339 20.188C473.664 20.3427 474.003 20.42 474.355 20.42C474.707 20.42 475.046 20.3427 475.371 20.188C475.696 20.028 475.982 19.7667 476.227 19.404C476.478 19.0413 476.675 18.564 476.819 17.972C476.968 17.38 477.043 16.6467 477.043 15.772ZM486.9 20.148C487.055 20.148 487.178 20.1933 487.268 20.284C487.359 20.3747 487.404 20.492 487.404 20.636V21.5H479.756V21.012C479.756 20.9107 479.778 20.8067 479.82 20.7C479.863 20.5933 479.93 20.4947 480.02 20.404L483.692 16.716C483.996 16.4067 484.274 16.1107 484.524 15.828C484.775 15.54 484.988 15.252 485.164 14.964C485.34 14.676 485.476 14.3853 485.572 14.092C485.668 13.7933 485.716 13.476 485.716 13.14C485.716 12.804 485.663 12.5107 485.556 12.26C485.45 12.004 485.303 11.7933 485.116 11.628C484.935 11.4627 484.719 11.34 484.468 11.26C484.218 11.1747 483.948 11.132 483.66 11.132C483.367 11.132 483.098 11.1747 482.852 11.26C482.607 11.3453 482.388 11.4653 482.196 11.62C482.01 11.7693 481.852 11.948 481.724 12.156C481.596 12.364 481.506 12.5933 481.452 12.844C481.388 13.0307 481.3 13.156 481.188 13.22C481.082 13.2787 480.93 13.2947 480.732 13.268L479.988 13.14C480.063 12.6173 480.207 12.156 480.42 11.756C480.639 11.3507 480.911 11.012 481.236 10.74C481.567 10.468 481.943 10.2627 482.364 10.124C482.786 9.98 483.242 9.908 483.732 9.908C484.218 9.908 484.671 9.98 485.092 10.124C485.514 10.268 485.879 10.4787 486.188 10.756C486.498 11.028 486.74 11.3613 486.916 11.756C487.092 12.1507 487.18 12.5987 487.18 13.1C487.18 13.5267 487.116 13.924 486.988 14.292C486.86 14.6547 486.687 15.0013 486.468 15.332C486.25 15.6627 485.996 15.9853 485.708 16.3C485.426 16.6147 485.124 16.932 484.804 17.252L481.78 20.34C481.994 20.2813 482.21 20.236 482.428 20.204C482.647 20.1667 482.858 20.148 483.06 20.148H486.9ZM491.182 14.364C491.779 14.236 492.328 14.172 492.83 14.172C493.427 14.172 493.955 14.26 494.414 14.436C494.872 14.612 495.254 14.8547 495.558 15.164C495.867 15.4733 496.099 15.8387 496.254 16.26C496.414 16.6813 496.494 17.14 496.494 17.636C496.494 18.244 496.387 18.7933 496.174 19.284C495.966 19.7747 495.675 20.196 495.302 20.548C494.934 20.8947 494.499 21.1613 493.998 21.348C493.496 21.5347 492.955 21.628 492.374 21.628C492.038 21.628 491.715 21.5933 491.406 21.524C491.096 21.46 490.806 21.372 490.534 21.26C490.267 21.148 490.019 21.02 489.79 20.876C489.56 20.732 489.358 20.58 489.182 20.42L489.622 19.812C489.718 19.6733 489.843 19.604 489.998 19.604C490.104 19.604 490.224 19.6467 490.358 19.732C490.491 19.812 490.654 19.9027 490.846 20.004C491.038 20.1053 491.262 20.1987 491.518 20.284C491.779 20.364 492.088 20.404 492.446 20.404C492.846 20.404 493.206 20.34 493.526 20.212C493.846 20.084 494.12 19.9027 494.35 19.668C494.579 19.428 494.755 19.1427 494.878 18.812C495 18.4813 495.062 18.1107 495.062 17.7C495.062 17.3427 495.008 17.02 494.902 16.732C494.8 16.444 494.643 16.1987 494.43 15.996C494.222 15.7933 493.96 15.636 493.646 15.524C493.331 15.412 492.963 15.356 492.542 15.356C492.254 15.356 491.952 15.38 491.638 15.428C491.328 15.476 491.011 15.5533 490.686 15.66L489.79 15.396L490.71 10.036H496.142V10.66C496.142 10.8627 496.078 11.0307 495.95 11.164C495.827 11.292 495.614 11.356 495.31 11.356H491.71L491.182 14.364ZM511.173 19.132C511.258 19.132 511.333 19.1667 511.397 19.236L512.013 19.9C511.543 20.444 510.973 20.868 510.301 21.172C509.634 21.476 508.826 21.628 507.877 21.628C507.055 21.628 506.309 21.4867 505.637 21.204C504.965 20.916 504.391 20.516 503.917 20.004C503.442 19.4867 503.074 18.868 502.813 18.148C502.551 17.428 502.421 16.636 502.421 15.772C502.421 14.908 502.557 14.116 502.829 13.396C503.101 12.676 503.482 12.0573 503.973 11.54C504.469 11.0227 505.061 10.6227 505.749 10.34C506.437 10.052 507.197 9.908 508.029 9.908C508.845 9.908 509.565 10.0387 510.189 10.3C510.813 10.5613 511.362 10.916 511.837 11.364L511.325 12.076C511.293 12.1293 511.25 12.1747 511.197 12.212C511.149 12.244 511.082 12.26 510.997 12.26C510.901 12.26 510.783 12.2093 510.645 12.108C510.506 12.0013 510.325 11.884 510.101 11.756C509.877 11.628 509.597 11.5133 509.261 11.412C508.925 11.3053 508.511 11.252 508.021 11.252C507.429 11.252 506.887 11.356 506.397 11.564C505.906 11.7667 505.482 12.0627 505.125 12.452C504.773 12.8413 504.498 13.316 504.301 13.876C504.103 14.436 504.005 15.068 504.005 15.772C504.005 16.4867 504.106 17.124 504.309 17.684C504.517 18.244 504.797 18.7187 505.149 19.108C505.506 19.492 505.925 19.7853 506.405 19.988C506.89 20.1907 507.413 20.292 507.973 20.292C508.314 20.292 508.621 20.2733 508.893 20.236C509.17 20.1933 509.423 20.1293 509.653 20.044C509.887 19.9587 510.103 19.852 510.301 19.724C510.503 19.5907 510.703 19.4333 510.901 19.252C510.991 19.172 511.082 19.132 511.173 19.132ZM516.736 13.268C517.328 13.268 517.861 13.3667 518.336 13.564C518.81 13.7613 519.216 14.0413 519.552 14.404C519.888 14.7667 520.144 15.2067 520.32 15.724C520.501 16.236 520.592 16.8093 520.592 17.444C520.592 18.084 520.501 18.66 520.32 19.172C520.144 19.684 519.888 20.1213 519.552 20.484C519.216 20.8467 518.81 21.1267 518.336 21.324C517.861 21.516 517.328 21.612 516.736 21.612C516.138 21.612 515.6 21.516 515.12 21.324C514.645 21.1267 514.24 20.8467 513.904 20.484C513.568 20.1213 513.309 19.684 513.128 19.172C512.952 18.66 512.864 18.084 512.864 17.444C512.864 16.8093 512.952 16.236 513.128 15.724C513.309 15.2067 513.568 14.7667 513.904 14.404C514.24 14.0413 514.645 13.7613 515.12 13.564C515.6 13.3667 516.138 13.268 516.736 13.268ZM516.736 20.5C517.536 20.5 518.133 20.2333 518.528 19.7C518.922 19.1613 519.12 18.412 519.12 17.452C519.12 16.4867 518.922 15.7347 518.528 15.196C518.133 14.6573 517.536 14.388 516.736 14.388C516.33 14.388 515.976 14.4573 515.672 14.596C515.373 14.7347 515.122 14.9347 514.92 15.196C514.722 15.4573 514.573 15.78 514.472 16.164C514.376 16.5427 514.328 16.972 514.328 17.452C514.328 18.412 514.525 19.1613 514.92 19.7C515.32 20.2333 515.925 20.5 516.736 20.5ZM523.742 14.572C523.918 14.3747 524.105 14.196 524.302 14.036C524.499 13.876 524.707 13.74 524.926 13.628C525.15 13.5107 525.385 13.4227 525.63 13.364C525.881 13.3 526.15 13.268 526.438 13.268C526.881 13.268 527.27 13.3427 527.606 13.492C527.947 13.636 528.23 13.844 528.454 14.116C528.683 14.3827 528.857 14.7053 528.974 15.084C529.091 15.4627 529.15 15.8813 529.15 16.34V21.5H527.718V16.34C527.718 15.7267 527.577 15.252 527.294 14.916C527.017 14.5747 526.593 14.404 526.022 14.404C525.601 14.404 525.206 14.5053 524.838 14.708C524.475 14.9107 524.139 15.1853 523.83 15.532V21.5H522.398V13.396H523.254C523.457 13.396 523.582 13.4947 523.63 13.692L523.742 14.572ZM536.04 14.732C535.976 14.8493 535.877 14.908 535.744 14.908C535.664 14.908 535.573 14.8787 535.472 14.82C535.37 14.7613 535.245 14.6973 535.096 14.628C534.952 14.5533 534.778 14.4867 534.576 14.428C534.373 14.364 534.133 14.332 533.856 14.332C533.616 14.332 533.4 14.364 533.208 14.428C533.016 14.4867 532.85 14.5693 532.712 14.676C532.578 14.7827 532.474 14.908 532.4 15.052C532.33 15.1907 532.296 15.3427 532.296 15.508C532.296 15.716 532.354 15.8893 532.472 16.028C532.594 16.1667 532.754 16.2867 532.952 16.388C533.149 16.4893 533.373 16.58 533.624 16.66C533.874 16.7347 534.13 16.8173 534.392 16.908C534.658 16.9933 534.917 17.0893 535.168 17.196C535.418 17.3027 535.642 17.436 535.84 17.596C536.037 17.756 536.194 17.9533 536.312 18.188C536.434 18.4173 536.496 18.6947 536.496 19.02C536.496 19.3933 536.429 19.74 536.296 20.06C536.162 20.3747 535.965 20.6493 535.704 20.884C535.442 21.1133 535.122 21.2947 534.744 21.428C534.365 21.5613 533.928 21.628 533.432 21.628C532.866 21.628 532.354 21.5373 531.896 21.356C531.437 21.1693 531.048 20.932 530.728 20.644L531.064 20.1C531.106 20.0307 531.157 19.9773 531.216 19.94C531.274 19.9027 531.349 19.884 531.44 19.884C531.536 19.884 531.637 19.9213 531.744 19.996C531.85 20.0707 531.978 20.1533 532.128 20.244C532.282 20.3347 532.469 20.4173 532.688 20.492C532.906 20.5667 533.178 20.604 533.504 20.604C533.781 20.604 534.024 20.5693 534.232 20.5C534.44 20.4253 534.613 20.3267 534.752 20.204C534.89 20.0813 534.992 19.94 535.056 19.78C535.125 19.62 535.16 19.4493 535.16 19.268C535.16 19.044 535.098 18.86 534.976 18.716C534.858 18.5667 534.701 18.4413 534.504 18.34C534.306 18.2333 534.08 18.1427 533.824 18.068C533.573 17.988 533.314 17.9053 533.048 17.82C532.786 17.7347 532.528 17.6387 532.272 17.532C532.021 17.42 531.797 17.2813 531.6 17.116C531.402 16.9507 531.242 16.748 531.12 16.508C531.002 16.2627 530.944 15.9667 530.944 15.62C530.944 15.3107 531.008 15.0147 531.136 14.732C531.264 14.444 531.45 14.1933 531.696 13.98C531.941 13.7613 532.242 13.588 532.6 13.46C532.957 13.332 533.365 13.268 533.824 13.268C534.357 13.268 534.834 13.3533 535.256 13.524C535.682 13.6893 536.05 13.9187 536.36 14.212L536.04 14.732ZM544.906 13.396V21.5H544.058C543.855 21.5 543.727 21.4013 543.674 21.204L543.562 20.332C543.21 20.7213 542.815 21.036 542.378 21.276C541.94 21.5107 541.439 21.628 540.874 21.628C540.431 21.628 540.039 21.556 539.698 21.412C539.362 21.2627 539.079 21.0547 538.85 20.788C538.62 20.5213 538.447 20.1987 538.33 19.82C538.218 19.4413 538.162 19.0227 538.162 18.564V13.396H539.586V18.564C539.586 19.1773 539.724 19.652 540.002 19.988C540.284 20.324 540.714 20.492 541.29 20.492C541.711 20.492 542.103 20.3933 542.466 20.196C542.834 19.9933 543.172 19.716 543.482 19.364V13.396H544.906ZM548.636 9.716V21.5H547.212V9.716H548.636ZM553.433 21.628C552.793 21.628 552.299 21.4493 551.953 21.092C551.611 20.7347 551.441 20.22 551.441 19.548V14.588H550.465C550.379 14.588 550.307 14.564 550.249 14.516C550.19 14.4627 550.161 14.3827 550.161 14.276V13.708L551.489 13.54L551.817 11.036C551.833 10.956 551.867 10.892 551.921 10.844C551.979 10.7907 552.054 10.764 552.145 10.764H552.865V13.556H555.209V14.588H552.865V19.452C552.865 19.7933 552.947 20.0467 553.113 20.212C553.278 20.3773 553.491 20.46 553.753 20.46C553.902 20.46 554.03 20.4413 554.137 20.404C554.249 20.3613 554.345 20.316 554.425 20.268C554.505 20.22 554.571 20.1773 554.625 20.14C554.683 20.0973 554.734 20.076 554.777 20.076C554.851 20.076 554.918 20.1213 554.977 20.212L555.393 20.892C555.147 21.1213 554.851 21.3027 554.505 21.436C554.158 21.564 553.801 21.628 553.433 21.628ZM561.071 17.852C560.415 17.8733 559.855 17.9267 559.391 18.012C558.932 18.092 558.556 18.1987 558.263 18.332C557.975 18.4653 557.764 18.6227 557.631 18.804C557.503 18.9853 557.439 19.188 557.439 19.412C557.439 19.6253 557.474 19.8093 557.543 19.964C557.612 20.1187 557.706 20.2467 557.823 20.348C557.946 20.444 558.087 20.516 558.247 20.564C558.412 20.6067 558.588 20.628 558.775 20.628C559.026 20.628 559.255 20.604 559.463 20.556C559.671 20.5027 559.866 20.428 560.047 20.332C560.234 20.236 560.41 20.1213 560.575 19.988C560.746 19.8547 560.911 19.7027 561.071 19.532V17.852ZM556.471 14.54C556.919 14.108 557.402 13.7853 557.919 13.572C558.436 13.3587 559.01 13.252 559.639 13.252C560.092 13.252 560.495 13.3267 560.847 13.476C561.199 13.6253 561.495 13.8333 561.735 14.1C561.975 14.3667 562.156 14.6893 562.279 15.068C562.402 15.4467 562.463 15.8627 562.463 16.316V21.5H561.831C561.692 21.5 561.586 21.4787 561.511 21.436C561.436 21.388 561.378 21.2973 561.335 21.164L561.175 20.396C560.962 20.5933 560.754 20.7693 560.551 20.924C560.348 21.0733 560.135 21.2013 559.911 21.308C559.687 21.4093 559.447 21.4867 559.191 21.54C558.94 21.5987 558.66 21.628 558.351 21.628C558.036 21.628 557.74 21.5853 557.463 21.5C557.186 21.4093 556.943 21.276 556.735 21.1C556.532 20.924 556.37 20.7027 556.247 20.436C556.13 20.164 556.071 19.844 556.071 19.476C556.071 19.156 556.159 18.8493 556.335 18.556C556.511 18.2573 556.796 17.9933 557.191 17.764C557.586 17.5347 558.1 17.348 558.735 17.204C559.37 17.0547 560.148 16.9693 561.071 16.948V16.316C561.071 15.6867 560.935 15.212 560.663 14.892C560.391 14.5667 559.994 14.404 559.471 14.404C559.119 14.404 558.823 14.4493 558.583 14.54C558.348 14.6253 558.143 14.724 557.967 14.836C557.796 14.9427 557.647 15.0413 557.519 15.132C557.396 15.2173 557.274 15.26 557.151 15.26C557.055 15.26 556.972 15.236 556.903 15.188C556.834 15.1347 556.775 15.0707 556.727 14.996L556.471 14.54ZM566.104 9.716V21.5H564.68V9.716H566.104ZM569.846 9.716V16.652H570.214C570.32 16.652 570.408 16.6387 570.478 16.612C570.552 16.58 570.63 16.5187 570.71 16.428L573.27 13.684C573.344 13.5933 573.422 13.524 573.502 13.476C573.587 13.4227 573.699 13.396 573.838 13.396H575.126L572.142 16.572C571.998 16.7533 571.843 16.8947 571.678 16.996C571.774 17.06 571.859 17.1347 571.934 17.22C572.014 17.3 572.088 17.3933 572.158 17.5L575.326 21.5H574.054C573.931 21.5 573.824 21.4813 573.734 21.444C573.648 21.4013 573.574 21.3267 573.51 21.22L570.846 17.9C570.766 17.788 570.686 17.716 570.606 17.684C570.531 17.6467 570.414 17.628 570.254 17.628H569.846V21.5H568.414V9.716H569.846ZM576.299 20.62C576.299 20.4813 576.323 20.3507 576.371 20.228C576.424 20.1053 576.493 19.9987 576.579 19.908C576.669 19.8173 576.776 19.7453 576.899 19.692C577.021 19.6387 577.152 19.612 577.291 19.612C577.429 19.612 577.56 19.6387 577.683 19.692C577.805 19.7453 577.912 19.8173 578.003 19.908C578.093 19.9987 578.165 20.1053 578.219 20.228C578.272 20.3507 578.299 20.4813 578.299 20.62C578.299 20.764 578.272 20.8973 578.219 21.02C578.165 21.1373 578.093 21.2413 578.003 21.332C577.912 21.4227 577.805 21.492 577.683 21.54C577.56 21.5933 577.429 21.62 577.291 21.62C577.152 21.62 577.021 21.5933 576.899 21.54C576.776 21.492 576.669 21.4227 576.579 21.332C576.493 21.2413 576.424 21.1373 576.371 21.02C576.323 20.8973 576.299 20.764 576.299 20.62ZM590.306 17.244L588.506 12.58C588.453 12.4413 588.397 12.2813 588.338 12.1C588.28 11.9133 588.224 11.716 588.17 11.508C588.058 11.94 587.944 12.3 587.826 12.588L586.026 17.244H590.306ZM593.538 21.5H592.338C592.2 21.5 592.088 21.4653 592.002 21.396C591.917 21.3267 591.853 21.2387 591.81 21.132L590.738 18.364H585.594L584.522 21.132C584.49 21.228 584.429 21.3133 584.338 21.388C584.248 21.4627 584.136 21.5 584.002 21.5H582.802L587.386 10.036H588.954L593.538 21.5ZM596.151 9.716V21.5H594.727V9.716H596.151ZM599.932 9.716V21.5H598.508V9.716H599.932ZM607.687 15.02C607.943 14.4653 608.258 14.0333 608.631 13.724C609.005 13.4093 609.461 13.252 609.999 13.252C610.17 13.252 610.333 13.2707 610.487 13.308C610.647 13.3453 610.789 13.404 610.911 13.484L610.807 14.548C610.775 14.6813 610.695 14.748 610.567 14.748C610.493 14.748 610.383 14.732 610.239 14.7C610.095 14.668 609.933 14.652 609.751 14.652C609.495 14.652 609.266 14.6893 609.063 14.764C608.866 14.8387 608.687 14.9507 608.527 15.1C608.373 15.244 608.231 15.4253 608.103 15.644C607.981 15.8573 607.869 16.1027 607.767 16.38V21.5H606.335V13.396H607.151C607.306 13.396 607.413 13.4253 607.471 13.484C607.53 13.5427 607.57 13.644 607.591 13.788L607.687 15.02ZM613.668 13.396V21.5H612.244V13.396H613.668ZM613.972 10.852C613.972 10.9907 613.942 11.1213 613.884 11.244C613.83 11.3613 613.756 11.468 613.66 11.564C613.569 11.6547 613.46 11.7267 613.332 11.78C613.209 11.8333 613.078 11.86 612.94 11.86C612.801 11.86 612.67 11.8333 612.548 11.78C612.43 11.7267 612.326 11.6547 612.236 11.564C612.145 11.468 612.073 11.3613 612.02 11.244C611.966 11.1213 611.94 10.9907 611.94 10.852C611.94 10.7133 611.966 10.5827 612.02 10.46C612.073 10.332 612.145 10.2227 612.236 10.132C612.326 10.036 612.43 9.96133 612.548 9.908C612.67 9.85467 612.801 9.828 612.94 9.828C613.078 9.828 613.209 9.85467 613.332 9.908C613.46 9.96133 613.569 10.036 613.66 10.132C613.756 10.2227 613.83 10.332 613.884 10.46C613.942 10.5827 613.972 10.7133 613.972 10.852ZM618.831 17.54C619.119 17.54 619.373 17.5 619.591 17.42C619.81 17.34 619.994 17.228 620.143 17.084C620.293 16.94 620.405 16.7693 620.479 16.572C620.554 16.3693 620.591 16.148 620.591 15.908C620.591 15.412 620.439 15.0173 620.135 14.724C619.837 14.4307 619.402 14.284 618.831 14.284C618.255 14.284 617.815 14.4307 617.511 14.724C617.213 15.0173 617.063 15.412 617.063 15.908C617.063 16.148 617.101 16.3693 617.175 16.572C617.255 16.7693 617.37 16.94 617.519 17.084C617.669 17.228 617.853 17.34 618.071 17.42C618.29 17.5 618.543 17.54 618.831 17.54ZM621.399 21.94C621.399 21.7427 621.343 21.5827 621.231 21.46C621.119 21.3373 620.967 21.2413 620.775 21.172C620.589 21.1027 620.37 21.0547 620.119 21.028C619.869 20.996 619.602 20.972 619.319 20.956C619.042 20.94 618.759 20.924 618.471 20.908C618.183 20.892 617.906 20.8653 617.639 20.828C617.341 20.9667 617.095 21.1427 616.903 21.356C616.717 21.564 616.623 21.8093 616.623 22.092C616.623 22.2733 616.669 22.4413 616.759 22.596C616.855 22.756 616.999 22.892 617.191 23.004C617.383 23.1213 617.623 23.212 617.911 23.276C618.205 23.3453 618.549 23.38 618.943 23.38C619.327 23.38 619.671 23.3453 619.975 23.276C620.279 23.2067 620.535 23.108 620.743 22.98C620.957 22.852 621.119 22.7 621.231 22.524C621.343 22.348 621.399 22.1533 621.399 21.94ZM622.847 13.716V14.244C622.847 14.42 622.735 14.532 622.511 14.58L621.591 14.7C621.773 15.052 621.863 15.4413 621.863 15.868C621.863 16.2627 621.786 16.6227 621.631 16.948C621.482 17.268 621.274 17.5427 621.007 17.772C620.741 18.0013 620.421 18.1773 620.047 18.3C619.674 18.4227 619.269 18.484 618.831 18.484C618.453 18.484 618.095 18.4387 617.759 18.348C617.589 18.4547 617.458 18.5693 617.367 18.692C617.277 18.8093 617.231 18.9293 617.231 19.052C617.231 19.244 617.309 19.3907 617.463 19.492C617.623 19.588 617.831 19.6573 618.087 19.7C618.343 19.7427 618.634 19.7693 618.959 19.78C619.29 19.7907 619.626 19.8093 619.967 19.836C620.314 19.8573 620.65 19.8973 620.975 19.956C621.306 20.0147 621.599 20.1107 621.855 20.244C622.111 20.3773 622.317 20.5613 622.471 20.796C622.631 21.0307 622.711 21.3347 622.711 21.708C622.711 22.0547 622.623 22.3907 622.447 22.716C622.277 23.0413 622.029 23.3293 621.703 23.58C621.378 23.836 620.978 24.0387 620.503 24.188C620.034 24.3427 619.503 24.42 618.911 24.42C618.319 24.42 617.802 24.3613 617.359 24.244C616.917 24.1267 616.549 23.9693 616.255 23.772C615.962 23.5747 615.741 23.3453 615.591 23.084C615.447 22.828 615.375 22.5587 615.375 22.276C615.375 21.876 615.501 21.5373 615.751 21.26C616.002 20.9827 616.346 20.7613 616.783 20.596C616.543 20.4893 616.351 20.348 616.207 20.172C616.069 19.9907 615.999 19.748 615.999 19.444C615.999 19.3267 616.021 19.2067 616.063 19.084C616.106 18.956 616.17 18.8307 616.255 18.708C616.346 18.58 616.455 18.46 616.583 18.348C616.711 18.236 616.861 18.1373 617.031 18.052C616.631 17.828 616.319 17.532 616.095 17.164C615.871 16.7907 615.759 16.3587 615.759 15.868C615.759 15.4733 615.834 15.116 615.983 14.796C616.138 14.4707 616.351 14.196 616.623 13.972C616.895 13.7427 617.218 13.5667 617.591 13.444C617.97 13.3213 618.383 13.26 618.831 13.26C619.183 13.26 619.511 13.3 619.815 13.38C620.119 13.4547 620.397 13.5667 620.647 13.716H622.847ZM625.752 14.476C626.098 14.108 626.482 13.8147 626.904 13.596C627.325 13.3773 627.81 13.268 628.36 13.268C628.802 13.268 629.192 13.3427 629.528 13.492C629.869 13.636 630.152 13.844 630.376 14.116C630.605 14.3827 630.778 14.7053 630.896 15.084C631.013 15.4627 631.072 15.8813 631.072 16.34V21.5H629.64V16.34C629.64 15.7267 629.498 15.252 629.216 14.916C628.938 14.5747 628.514 14.404 627.944 14.404C627.522 14.404 627.128 14.5053 626.76 14.708C626.397 14.9107 626.061 15.1853 625.752 15.532V21.5H624.32V9.716H625.752V14.476ZM635.62 21.628C634.98 21.628 634.487 21.4493 634.14 21.092C633.799 20.7347 633.628 20.22 633.628 19.548V14.588H632.652C632.567 14.588 632.495 14.564 632.436 14.516C632.378 14.4627 632.348 14.3827 632.348 14.276V13.708L633.676 13.54L634.004 11.036C634.02 10.956 634.055 10.892 634.108 10.844C634.167 10.7907 634.242 10.764 634.332 10.764H635.052V13.556H637.396V14.588H635.052V19.452C635.052 19.7933 635.135 20.0467 635.3 20.212C635.466 20.3773 635.679 20.46 635.94 20.46C636.09 20.46 636.218 20.4413 636.324 20.404C636.436 20.3613 636.532 20.316 636.612 20.268C636.692 20.22 636.759 20.1773 636.812 20.14C636.871 20.0973 636.922 20.076 636.964 20.076C637.039 20.076 637.106 20.1213 637.164 20.212L637.58 20.892C637.335 21.1213 637.039 21.3027 636.692 21.436C636.346 21.564 635.988 21.628 635.62 21.628ZM643.587 14.732C643.523 14.8493 643.424 14.908 643.291 14.908C643.211 14.908 643.12 14.8787 643.019 14.82C642.917 14.7613 642.792 14.6973 642.643 14.628C642.499 14.5533 642.325 14.4867 642.123 14.428C641.92 14.364 641.68 14.332 641.403 14.332C641.163 14.332 640.947 14.364 640.755 14.428C640.563 14.4867 640.397 14.5693 640.259 14.676C640.125 14.7827 640.021 14.908 639.947 15.052C639.877 15.1907 639.843 15.3427 639.843 15.508C639.843 15.716 639.901 15.8893 640.019 16.028C640.141 16.1667 640.301 16.2867 640.499 16.388C640.696 16.4893 640.92 16.58 641.171 16.66C641.421 16.7347 641.677 16.8173 641.939 16.908C642.205 16.9933 642.464 17.0893 642.715 17.196C642.965 17.3027 643.189 17.436 643.387 17.596C643.584 17.756 643.741 17.9533 643.859 18.188C643.981 18.4173 644.043 18.6947 644.043 19.02C644.043 19.3933 643.976 19.74 643.843 20.06C643.709 20.3747 643.512 20.6493 643.251 20.884C642.989 21.1133 642.669 21.2947 642.291 21.428C641.912 21.5613 641.475 21.628 640.979 21.628C640.413 21.628 639.901 21.5373 639.443 21.356C638.984 21.1693 638.595 20.932 638.275 20.644L638.611 20.1C638.653 20.0307 638.704 19.9773 638.763 19.94C638.821 19.9027 638.896 19.884 638.987 19.884C639.083 19.884 639.184 19.9213 639.291 19.996C639.397 20.0707 639.525 20.1533 639.675 20.244C639.829 20.3347 640.016 20.4173 640.235 20.492C640.453 20.5667 640.725 20.604 641.051 20.604C641.328 20.604 641.571 20.5693 641.779 20.5C641.987 20.4253 642.16 20.3267 642.299 20.204C642.437 20.0813 642.539 19.94 642.603 19.78C642.672 19.62 642.707 19.4493 642.707 19.268C642.707 19.044 642.645 18.86 642.523 18.716C642.405 18.5667 642.248 18.4413 642.051 18.34C641.853 18.2333 641.627 18.1427 641.371 18.068C641.12 17.988 640.861 17.9053 640.595 17.82C640.333 17.7347 640.075 17.6387 639.819 17.532C639.568 17.42 639.344 17.2813 639.147 17.116C638.949 16.9507 638.789 16.748 638.667 16.508C638.549 16.2627 638.491 15.9667 638.491 15.62C638.491 15.3107 638.555 15.0147 638.683 14.732C638.811 14.444 638.997 14.1933 639.243 13.98C639.488 13.7613 639.789 13.588 640.147 13.46C640.504 13.332 640.912 13.268 641.371 13.268C641.904 13.268 642.381 13.3533 642.803 13.524C643.229 13.6893 643.597 13.9187 643.907 14.212L643.587 14.732ZM651.234 15.02C651.49 14.4653 651.805 14.0333 652.178 13.724C652.552 13.4093 653.008 13.252 653.546 13.252C653.717 13.252 653.88 13.2707 654.034 13.308C654.194 13.3453 654.336 13.404 654.458 13.484L654.354 14.548C654.322 14.6813 654.242 14.748 654.114 14.748C654.04 14.748 653.93 14.732 653.786 14.7C653.642 14.668 653.48 14.652 653.298 14.652C653.042 14.652 652.813 14.6893 652.61 14.764C652.413 14.8387 652.234 14.9507 652.074 15.1C651.92 15.244 651.778 15.4253 651.65 15.644C651.528 15.8573 651.416 16.1027 651.314 16.38V21.5H649.882V13.396H650.698C650.853 13.396 650.96 13.4253 651.018 13.484C651.077 13.5427 651.117 13.644 651.138 13.788L651.234 15.02ZM660.806 16.564C660.806 16.2333 660.758 15.932 660.662 15.66C660.572 15.3827 660.436 15.1453 660.254 14.948C660.078 14.7453 659.862 14.5907 659.606 14.484C659.35 14.372 659.06 14.316 658.734 14.316C658.052 14.316 657.51 14.516 657.11 14.916C656.716 15.3107 656.47 15.86 656.374 16.564H660.806ZM661.958 20.364C661.782 20.5773 661.572 20.764 661.326 20.924C661.081 21.0787 660.817 21.2067 660.534 21.308C660.257 21.4093 659.969 21.484 659.67 21.532C659.372 21.5853 659.076 21.612 658.782 21.612C658.222 21.612 657.705 21.5187 657.23 21.332C656.761 21.14 656.353 20.8627 656.006 20.5C655.665 20.132 655.398 19.6787 655.206 19.14C655.014 18.6013 654.918 17.9827 654.918 17.284C654.918 16.7187 655.004 16.1907 655.174 15.7C655.35 15.2093 655.601 14.7853 655.926 14.428C656.252 14.0653 656.649 13.7827 657.118 13.58C657.588 13.372 658.116 13.268 658.702 13.268C659.188 13.268 659.636 13.3507 660.046 13.516C660.462 13.676 660.82 13.9107 661.118 14.22C661.422 14.524 661.66 14.9027 661.83 15.356C662.001 15.804 662.086 16.316 662.086 16.892C662.086 17.116 662.062 17.2653 662.014 17.34C661.966 17.4147 661.876 17.452 661.742 17.452H656.326C656.342 17.964 656.412 18.4093 656.534 18.788C656.662 19.1667 656.838 19.484 657.062 19.74C657.286 19.9907 657.553 20.18 657.862 20.308C658.172 20.4307 658.518 20.492 658.902 20.492C659.26 20.492 659.566 20.452 659.822 20.372C660.084 20.2867 660.308 20.196 660.494 20.1C660.681 20.004 660.836 19.916 660.958 19.836C661.086 19.7507 661.196 19.708 661.286 19.708C661.404 19.708 661.494 19.7533 661.558 19.844L661.958 20.364ZM668.555 14.732C668.491 14.8493 668.393 14.908 668.259 14.908C668.179 14.908 668.089 14.8787 667.987 14.82C667.886 14.7613 667.761 14.6973 667.611 14.628C667.467 14.5533 667.294 14.4867 667.091 14.428C666.889 14.364 666.649 14.332 666.371 14.332C666.131 14.332 665.915 14.364 665.723 14.428C665.531 14.4867 665.366 14.5693 665.227 14.676C665.094 14.7827 664.99 14.908 664.915 15.052C664.846 15.1907 664.811 15.3427 664.811 15.508C664.811 15.716 664.87 15.8893 664.987 16.028C665.11 16.1667 665.27 16.2867 665.467 16.388C665.665 16.4893 665.889 16.58 666.139 16.66C666.39 16.7347 666.646 16.8173 666.907 16.908C667.174 16.9933 667.433 17.0893 667.683 17.196C667.934 17.3027 668.158 17.436 668.355 17.596C668.553 17.756 668.71 17.9533 668.827 18.188C668.95 18.4173 669.011 18.6947 669.011 19.02C669.011 19.3933 668.945 19.74 668.811 20.06C668.678 20.3747 668.481 20.6493 668.219 20.884C667.958 21.1133 667.638 21.2947 667.259 21.428C666.881 21.5613 666.443 21.628 665.947 21.628C665.382 21.628 664.87 21.5373 664.411 21.356C663.953 21.1693 663.563 20.932 663.243 20.644L663.579 20.1C663.622 20.0307 663.673 19.9773 663.731 19.94C663.79 19.9027 663.865 19.884 663.955 19.884C664.051 19.884 664.153 19.9213 664.259 19.996C664.366 20.0707 664.494 20.1533 664.643 20.244C664.798 20.3347 664.985 20.4173 665.203 20.492C665.422 20.5667 665.694 20.604 666.019 20.604C666.297 20.604 666.539 20.5693 666.747 20.5C666.955 20.4253 667.129 20.3267 667.267 20.204C667.406 20.0813 667.507 19.94 667.571 19.78C667.641 19.62 667.675 19.4493 667.675 19.268C667.675 19.044 667.614 18.86 667.491 18.716C667.374 18.5667 667.217 18.4413 667.019 18.34C666.822 18.2333 666.595 18.1427 666.339 18.068C666.089 17.988 665.83 17.9053 665.563 17.82C665.302 17.7347 665.043 17.6387 664.787 17.532C664.537 17.42 664.313 17.2813 664.115 17.116C663.918 16.9507 663.758 16.748 663.635 16.508C663.518 16.2627 663.459 15.9667 663.459 15.62C663.459 15.3107 663.523 15.0147 663.651 14.732C663.779 14.444 663.966 14.1933 664.211 13.98C664.457 13.7613 664.758 13.588 665.115 13.46C665.473 13.332 665.881 13.268 666.339 13.268C666.873 13.268 667.35 13.3533 667.771 13.524C668.198 13.6893 668.566 13.9187 668.875 14.212L668.555 14.732ZM676.181 16.564C676.181 16.2333 676.133 15.932 676.037 15.66C675.947 15.3827 675.811 15.1453 675.629 14.948C675.453 14.7453 675.237 14.5907 674.981 14.484C674.725 14.372 674.435 14.316 674.109 14.316C673.427 14.316 672.885 14.516 672.485 14.916C672.091 15.3107 671.845 15.86 671.749 16.564H676.181ZM677.333 20.364C677.157 20.5773 676.947 20.764 676.701 20.924C676.456 21.0787 676.192 21.2067 675.909 21.308C675.632 21.4093 675.344 21.484 675.045 21.532C674.747 21.5853 674.451 21.612 674.157 21.612C673.597 21.612 673.08 21.5187 672.605 21.332C672.136 21.14 671.728 20.8627 671.381 20.5C671.04 20.132 670.773 19.6787 670.581 19.14C670.389 18.6013 670.293 17.9827 670.293 17.284C670.293 16.7187 670.379 16.1907 670.549 15.7C670.725 15.2093 670.976 14.7853 671.301 14.428C671.627 14.0653 672.024 13.7827 672.493 13.58C672.963 13.372 673.491 13.268 674.077 13.268C674.563 13.268 675.011 13.3507 675.421 13.516C675.837 13.676 676.195 13.9107 676.493 14.22C676.797 14.524 677.035 14.9027 677.205 15.356C677.376 15.804 677.461 16.316 677.461 16.892C677.461 17.116 677.437 17.2653 677.389 17.34C677.341 17.4147 677.251 17.452 677.117 17.452H671.701C671.717 17.964 671.787 18.4093 671.909 18.788C672.037 19.1667 672.213 19.484 672.437 19.74C672.661 19.9907 672.928 20.18 673.237 20.308C673.547 20.4307 673.893 20.492 674.277 20.492C674.635 20.492 674.941 20.452 675.197 20.372C675.459 20.2867 675.683 20.196 675.869 20.1C676.056 20.004 676.211 19.916 676.333 19.836C676.461 19.7507 676.571 19.708 676.661 19.708C676.779 19.708 676.869 19.7533 676.933 19.844L677.333 20.364ZM680.562 15.02C680.818 14.4653 681.133 14.0333 681.506 13.724C681.88 13.4093 682.336 13.252 682.874 13.252C683.045 13.252 683.208 13.2707 683.362 13.308C683.522 13.3453 683.664 13.404 683.786 13.484L683.682 14.548C683.65 14.6813 683.57 14.748 683.442 14.748C683.368 14.748 683.258 14.732 683.114 14.7C682.97 14.668 682.808 14.652 682.626 14.652C682.37 14.652 682.141 14.6893 681.938 14.764C681.741 14.8387 681.562 14.9507 681.402 15.1C681.248 15.244 681.106 15.4253 680.978 15.644C680.856 15.8573 680.744 16.1027 680.642 16.38V21.5H679.21V13.396H680.026C680.181 13.396 680.288 13.4253 680.346 13.484C680.405 13.5427 680.445 13.644 680.466 13.788L680.562 15.02ZM691.983 13.396L688.679 21.5H687.399L684.095 13.396H685.255C685.372 13.396 685.468 13.4253 685.543 13.484C685.617 13.5427 685.668 13.612 685.695 13.692L687.751 18.908C687.815 19.1053 687.871 19.2973 687.919 19.484C687.967 19.6707 688.012 19.8573 688.055 20.044C688.097 19.8573 688.143 19.6707 688.191 19.484C688.239 19.2973 688.297 19.1053 688.367 18.908L690.447 13.692C690.479 13.6067 690.532 13.5373 690.607 13.484C690.681 13.4253 690.769 13.396 690.871 13.396H691.983ZM698.494 16.564C698.494 16.2333 698.446 15.932 698.35 15.66C698.259 15.3827 698.123 15.1453 697.942 14.948C697.766 14.7453 697.55 14.5907 697.294 14.484C697.038 14.372 696.747 14.316 696.422 14.316C695.739 14.316 695.198 14.516 694.798 14.916C694.403 15.3107 694.158 15.86 694.062 16.564H698.494ZM699.646 20.364C699.47 20.5773 699.259 20.764 699.014 20.924C698.768 21.0787 698.504 21.2067 698.222 21.308C697.944 21.4093 697.656 21.484 697.358 21.532C697.059 21.5853 696.763 21.612 696.47 21.612C695.91 21.612 695.392 21.5187 694.918 21.332C694.448 21.14 694.04 20.8627 693.694 20.5C693.352 20.132 693.086 19.6787 692.894 19.14C692.702 18.6013 692.606 17.9827 692.606 17.284C692.606 16.7187 692.691 16.1907 692.862 15.7C693.038 15.2093 693.288 14.7853 693.614 14.428C693.939 14.0653 694.336 13.7827 694.806 13.58C695.275 13.372 695.803 13.268 696.39 13.268C696.875 13.268 697.323 13.3507 697.734 13.516C698.15 13.676 698.507 13.9107 698.806 14.22C699.11 14.524 699.347 14.9027 699.518 15.356C699.688 15.804 699.774 16.316 699.774 16.892C699.774 17.116 699.75 17.2653 699.702 17.34C699.654 17.4147 699.563 17.452 699.43 17.452H694.014C694.03 17.964 694.099 18.4093 694.222 18.788C694.35 19.1667 694.526 19.484 694.75 19.74C694.974 19.9907 695.24 20.18 695.55 20.308C695.859 20.4307 696.206 20.492 696.59 20.492C696.947 20.492 697.254 20.452 697.51 20.372C697.771 20.2867 697.995 20.196 698.182 20.1C698.368 20.004 698.523 19.916 698.646 19.836C698.774 19.7507 698.883 19.708 698.974 19.708C699.091 19.708 699.182 19.7533 699.246 19.844L699.646 20.364ZM706.803 15.324C706.536 14.9667 706.248 14.7187 705.939 14.58C705.63 14.436 705.283 14.364 704.899 14.364C704.147 14.364 703.568 14.6333 703.163 15.172C702.758 15.7107 702.555 16.4787 702.555 17.476C702.555 18.004 702.6 18.4573 702.691 18.836C702.782 19.2093 702.915 19.5187 703.091 19.764C703.267 20.004 703.483 20.18 703.739 20.292C703.995 20.404 704.286 20.46 704.611 20.46C705.08 20.46 705.488 20.3533 705.835 20.14C706.187 19.9267 706.51 19.6253 706.803 19.236V15.324ZM708.227 9.716V21.5H707.379C707.176 21.5 707.048 21.4013 706.995 21.204L706.867 20.22C706.52 20.636 706.126 20.972 705.683 21.228C705.24 21.484 704.728 21.612 704.147 21.612C703.683 21.612 703.262 21.524 702.883 21.348C702.504 21.1667 702.182 20.9027 701.915 20.556C701.648 20.2093 701.443 19.7773 701.299 19.26C701.155 18.7427 701.083 18.148 701.083 17.476C701.083 16.8787 701.163 16.324 701.323 15.812C701.483 15.2947 701.712 14.8467 702.011 14.468C702.31 14.0893 702.675 13.7933 703.107 13.58C703.544 13.3613 704.035 13.252 704.579 13.252C705.075 13.252 705.499 13.3373 705.851 13.508C706.208 13.6733 706.526 13.9053 706.803 14.204V9.716H708.227Z" fill="#99A1AF"/>
<path d="M985.216 11.34H981.504V21.5H979.96V11.34H976.24V10.036H985.216V11.34ZM990.052 16.564C990.052 16.2333 990.004 15.932 989.908 15.66C989.817 15.3827 989.681 15.1453 989.5 14.948C989.324 14.7453 989.108 14.5907 988.852 14.484C988.596 14.372 988.305 14.316 987.98 14.316C987.297 14.316 986.756 14.516 986.356 14.916C985.961 15.3107 985.716 15.86 985.62 16.564H990.052ZM991.204 20.364C991.028 20.5773 990.817 20.764 990.572 20.924C990.327 21.0787 990.063 21.2067 989.78 21.308C989.503 21.4093 989.215 21.484 988.916 21.532C988.617 21.5853 988.321 21.612 988.028 21.612C987.468 21.612 986.951 21.5187 986.476 21.332C986.007 21.14 985.599 20.8627 985.252 20.5C984.911 20.132 984.644 19.6787 984.452 19.14C984.26 18.6013 984.164 17.9827 984.164 17.284C984.164 16.7187 984.249 16.1907 984.42 15.7C984.596 15.2093 984.847 14.7853 985.172 14.428C985.497 14.0653 985.895 13.7827 986.364 13.58C986.833 13.372 987.361 13.268 987.948 13.268C988.433 13.268 988.881 13.3507 989.292 13.516C989.708 13.676 990.065 13.9107 990.364 14.22C990.668 14.524 990.905 14.9027 991.076 15.356C991.247 15.804 991.332 16.316 991.332 16.892C991.332 17.116 991.308 17.2653 991.26 17.34C991.212 17.4147 991.121 17.452 990.988 17.452H985.572C985.588 17.964 985.657 18.4093 985.78 18.788C985.908 19.1667 986.084 19.484 986.308 19.74C986.532 19.9907 986.799 20.18 987.108 20.308C987.417 20.4307 987.764 20.492 988.148 20.492C988.505 20.492 988.812 20.452 989.068 20.372C989.329 20.2867 989.553 20.196 989.74 20.1C989.927 20.004 990.081 19.916 990.204 19.836C990.332 19.7507 990.441 19.708 990.532 19.708C990.649 19.708 990.74 19.7533 990.804 19.844L991.204 20.364ZM994.433 15.02C994.689 14.4653 995.004 14.0333 995.377 13.724C995.75 13.4093 996.206 13.252 996.745 13.252C996.916 13.252 997.078 13.2707 997.233 13.308C997.393 13.3453 997.534 13.404 997.657 13.484L997.553 14.548C997.521 14.6813 997.441 14.748 997.313 14.748C997.238 14.748 997.129 14.732 996.985 14.7C996.841 14.668 996.678 14.652 996.497 14.652C996.241 14.652 996.012 14.6893 995.809 14.764C995.612 14.8387 995.433 14.9507 995.273 15.1C995.118 15.244 994.977 15.4253 994.849 15.644C994.726 15.8573 994.614 16.1027 994.513 16.38V21.5H993.081V13.396H993.897C994.052 13.396 994.158 13.4253 994.217 13.484C994.276 13.5427 994.316 13.644 994.337 13.788L994.433 15.02ZM998.909 21.5V13.396H999.765C999.968 13.396 1000.09 13.4947 1000.14 13.692L1000.25 14.524C1000.54 14.156 1000.88 13.8547 1001.25 13.62C1001.63 13.3853 1002.06 13.268 1002.55 13.268C1003.09 13.268 1003.53 13.42 1003.87 13.724C1004.21 14.028 1004.46 14.4387 1004.61 14.956C1004.72 14.6627 1004.87 14.4093 1005.05 14.196C1005.24 13.9827 1005.45 13.8067 1005.68 13.668C1005.91 13.5293 1006.15 13.428 1006.41 13.364C1006.67 13.3 1006.93 13.268 1007.2 13.268C1007.62 13.268 1008 13.3373 1008.33 13.476C1008.67 13.6093 1008.95 13.8067 1009.18 14.068C1009.42 14.3293 1009.59 14.652 1009.72 15.036C1009.84 15.4147 1009.9 15.8493 1009.9 16.34V21.5H1008.47V16.34C1008.47 15.7053 1008.33 15.2253 1008.05 14.9C1007.78 14.5693 1007.38 14.404 1006.85 14.404C1006.62 14.404 1006.39 14.4467 1006.18 14.532C1005.97 14.612 1005.79 14.732 1005.63 14.892C1005.47 15.052 1005.34 15.2547 1005.25 15.5C1005.15 15.74 1005.11 16.02 1005.11 16.34V21.5H1003.68V16.34C1003.68 15.6893 1003.55 15.204 1003.29 14.884C1003.02 14.564 1002.64 14.404 1002.14 14.404C1001.79 14.404 1001.46 14.5 1001.17 14.692C1000.87 14.8787 1000.59 15.1347 1000.34 15.46V21.5H998.909ZM1016.79 14.732C1016.72 14.8493 1016.62 14.908 1016.49 14.908C1016.41 14.908 1016.32 14.8787 1016.22 14.82C1016.12 14.7613 1015.99 14.6973 1015.84 14.628C1015.7 14.5533 1015.52 14.4867 1015.32 14.428C1015.12 14.364 1014.88 14.332 1014.6 14.332C1014.36 14.332 1014.15 14.364 1013.95 14.428C1013.76 14.4867 1013.6 14.5693 1013.46 14.676C1013.32 14.7827 1013.22 14.908 1013.15 15.052C1013.08 15.1907 1013.04 15.3427 1013.04 15.508C1013.04 15.716 1013.1 15.8893 1013.22 16.028C1013.34 16.1667 1013.5 16.2867 1013.7 16.388C1013.89 16.4893 1014.12 16.58 1014.37 16.66C1014.62 16.7347 1014.88 16.8173 1015.14 16.908C1015.4 16.9933 1015.66 17.0893 1015.91 17.196C1016.16 17.3027 1016.39 17.436 1016.59 17.596C1016.78 17.756 1016.94 17.9533 1017.06 18.188C1017.18 18.4173 1017.24 18.6947 1017.24 19.02C1017.24 19.3933 1017.17 19.74 1017.04 20.06C1016.91 20.3747 1016.71 20.6493 1016.45 20.884C1016.19 21.1133 1015.87 21.2947 1015.49 21.428C1015.11 21.5613 1014.67 21.628 1014.18 21.628C1013.61 21.628 1013.1 21.5373 1012.64 21.356C1012.18 21.1693 1011.79 20.932 1011.47 20.644L1011.81 20.1C1011.85 20.0307 1011.9 19.9773 1011.96 19.94C1012.02 19.9027 1012.09 19.884 1012.19 19.884C1012.28 19.884 1012.38 19.9213 1012.49 19.996C1012.6 20.0707 1012.72 20.1533 1012.87 20.244C1013.03 20.3347 1013.21 20.4173 1013.43 20.492C1013.65 20.5667 1013.92 20.604 1014.25 20.604C1014.53 20.604 1014.77 20.5693 1014.98 20.5C1015.19 20.4253 1015.36 20.3267 1015.5 20.204C1015.64 20.0813 1015.74 19.94 1015.8 19.78C1015.87 19.62 1015.91 19.4493 1015.91 19.268C1015.91 19.044 1015.84 18.86 1015.72 18.716C1015.6 18.5667 1015.45 18.4413 1015.25 18.34C1015.05 18.2333 1014.83 18.1427 1014.57 18.068C1014.32 17.988 1014.06 17.9053 1013.79 17.82C1013.53 17.7347 1013.27 17.6387 1013.02 17.532C1012.77 17.42 1012.54 17.2813 1012.35 17.116C1012.15 16.9507 1011.99 16.748 1011.87 16.508C1011.75 16.2627 1011.69 15.9667 1011.69 15.62C1011.69 15.3107 1011.75 15.0147 1011.88 14.732C1012.01 14.444 1012.2 14.1933 1012.44 13.98C1012.69 13.7613 1012.99 13.588 1013.35 13.46C1013.7 13.332 1014.11 13.268 1014.57 13.268C1015.1 13.268 1015.58 13.3533 1016 13.524C1016.43 13.6893 1016.8 13.9187 1017.11 14.212L1016.79 14.732ZM1026.5 13.268C1027.09 13.268 1027.62 13.3667 1028.1 13.564C1028.57 13.7613 1028.98 14.0413 1029.31 14.404C1029.65 14.7667 1029.91 15.2067 1030.08 15.724C1030.26 16.236 1030.35 16.8093 1030.35 17.444C1030.35 18.084 1030.26 18.66 1030.08 19.172C1029.91 19.684 1029.65 20.1213 1029.31 20.484C1028.98 20.8467 1028.57 21.1267 1028.1 21.324C1027.62 21.516 1027.09 21.612 1026.5 21.612C1025.9 21.612 1025.36 21.516 1024.88 21.324C1024.41 21.1267 1024 20.8467 1023.67 20.484C1023.33 20.1213 1023.07 19.684 1022.89 19.172C1022.71 18.66 1022.63 18.084 1022.63 17.444C1022.63 16.8093 1022.71 16.236 1022.89 15.724C1023.07 15.2067 1023.33 14.7667 1023.67 14.404C1024 14.0413 1024.41 13.7613 1024.88 13.564C1025.36 13.3667 1025.9 13.268 1026.5 13.268ZM1026.5 20.5C1027.3 20.5 1027.89 20.2333 1028.29 19.7C1028.68 19.1613 1028.88 18.412 1028.88 17.452C1028.88 16.4867 1028.68 15.7347 1028.29 15.196C1027.89 14.6573 1027.3 14.388 1026.5 14.388C1026.09 14.388 1025.74 14.4573 1025.43 14.596C1025.13 14.7347 1024.88 14.9347 1024.68 15.196C1024.48 15.4573 1024.33 15.78 1024.23 16.164C1024.14 16.5427 1024.09 16.972 1024.09 17.452C1024.09 18.412 1024.29 19.1613 1024.68 19.7C1025.08 20.2333 1025.69 20.5 1026.5 20.5ZM1032.52 21.5V14.612L1031.62 14.508C1031.51 14.4813 1031.41 14.4413 1031.34 14.388C1031.27 14.3293 1031.24 14.2467 1031.24 14.14V13.556H1032.52V12.772C1032.52 12.308 1032.58 11.8973 1032.71 11.54C1032.84 11.1773 1033.03 10.8733 1033.27 10.628C1033.51 10.3773 1033.81 10.188 1034.15 10.06C1034.49 9.932 1034.87 9.868 1035.3 9.868C1035.66 9.868 1036 9.92133 1036.3 10.028L1036.27 10.74C1036.26 10.868 1036.18 10.9373 1036.05 10.948C1035.92 10.9587 1035.75 10.964 1035.53 10.964C1035.29 10.964 1035.06 10.996 1034.86 11.06C1034.66 11.124 1034.49 11.228 1034.35 11.372C1034.2 11.516 1034.09 11.7053 1034.01 11.94C1033.94 12.1747 1033.9 12.4653 1033.9 12.812V13.556H1036.24V14.588H1033.95V21.5H1032.52ZM1047.59 11.828C1047.55 11.908 1047.49 11.9693 1047.43 12.012C1047.38 12.0493 1047.31 12.068 1047.23 12.068C1047.14 12.068 1047.04 12.0227 1046.91 11.932C1046.79 11.8413 1046.64 11.7427 1046.45 11.636C1046.27 11.524 1046.05 11.4227 1045.79 11.332C1045.53 11.2413 1045.22 11.196 1044.85 11.196C1044.5 11.196 1044.2 11.244 1043.93 11.34C1043.67 11.4307 1043.45 11.556 1043.27 11.716C1043.09 11.876 1042.96 12.0653 1042.87 12.284C1042.77 12.4973 1042.73 12.7293 1042.73 12.98C1042.73 13.3 1042.81 13.5667 1042.96 13.78C1043.12 13.988 1043.33 14.1667 1043.59 14.316C1043.85 14.4653 1044.14 14.596 1044.47 14.708C1044.8 14.8147 1045.13 14.9267 1045.47 15.044C1045.82 15.1613 1046.16 15.2947 1046.48 15.444C1046.81 15.588 1047.11 15.772 1047.36 15.996C1047.62 16.22 1047.83 16.4947 1047.99 16.82C1048.15 17.1453 1048.23 17.5453 1048.23 18.02C1048.23 18.5213 1048.14 18.9933 1047.97 19.436C1047.8 19.8733 1047.55 20.2547 1047.22 20.58C1046.89 20.9053 1046.49 21.1613 1046.01 21.348C1045.53 21.5347 1044.99 21.628 1044.39 21.628C1043.64 21.628 1042.96 21.4947 1042.35 21.228C1041.75 20.956 1041.23 20.5907 1040.79 20.132L1041.24 19.396C1041.28 19.3373 1041.33 19.2893 1041.39 19.252C1041.46 19.2093 1041.53 19.188 1041.6 19.188C1041.67 19.188 1041.75 19.2173 1041.83 19.276C1041.92 19.3293 1042.03 19.3987 1042.14 19.484C1042.25 19.5693 1042.38 19.6627 1042.52 19.764C1042.67 19.8653 1042.83 19.9587 1043.01 20.044C1043.2 20.1293 1043.41 20.2013 1043.64 20.26C1043.88 20.3133 1044.14 20.34 1044.43 20.34C1044.8 20.34 1045.13 20.2893 1045.42 20.188C1045.71 20.0867 1045.95 19.9453 1046.15 19.764C1046.35 19.5773 1046.5 19.356 1046.61 19.1C1046.72 18.844 1046.77 18.5587 1046.77 18.244C1046.77 17.8973 1046.69 17.6147 1046.53 17.396C1046.37 17.172 1046.17 16.9853 1045.91 16.836C1045.66 16.6867 1045.36 16.5613 1045.03 16.46C1044.7 16.3533 1044.37 16.2467 1044.03 16.14C1043.68 16.028 1043.35 15.9 1043.02 15.756C1042.69 15.612 1042.39 15.4253 1042.14 15.196C1041.88 14.9667 1041.67 14.6813 1041.51 14.34C1041.36 13.9933 1041.28 13.5667 1041.28 13.06C1041.28 12.6547 1041.36 12.2627 1041.51 11.884C1041.67 11.5053 1041.9 11.1693 1042.2 10.876C1042.51 10.5827 1042.88 10.348 1043.31 10.172C1043.76 9.996 1044.26 9.908 1044.83 9.908C1045.47 9.908 1046.05 10.0093 1046.58 10.212C1047.11 10.4147 1047.57 10.708 1047.97 11.092L1047.59 11.828ZM1055.46 16.564C1055.46 16.2333 1055.41 15.932 1055.31 15.66C1055.22 15.3827 1055.09 15.1453 1054.91 14.948C1054.73 14.7453 1054.51 14.5907 1054.26 14.484C1054 14.372 1053.71 14.316 1053.39 14.316C1052.7 14.316 1052.16 14.516 1051.76 14.916C1051.37 15.3107 1051.12 15.86 1051.03 16.564H1055.46ZM1056.61 20.364C1056.43 20.5773 1056.22 20.764 1055.98 20.924C1055.73 21.0787 1055.47 21.2067 1055.19 21.308C1054.91 21.4093 1054.62 21.484 1054.32 21.532C1054.02 21.5853 1053.73 21.612 1053.43 21.612C1052.87 21.612 1052.36 21.5187 1051.88 21.332C1051.41 21.14 1051 20.8627 1050.66 20.5C1050.32 20.132 1050.05 19.6787 1049.86 19.14C1049.67 18.6013 1049.57 17.9827 1049.57 17.284C1049.57 16.7187 1049.66 16.1907 1049.83 15.7C1050 15.2093 1050.25 14.7853 1050.58 14.428C1050.9 14.0653 1051.3 13.7827 1051.77 13.58C1052.24 13.372 1052.77 13.268 1053.35 13.268C1053.84 13.268 1054.29 13.3507 1054.7 13.516C1055.11 13.676 1055.47 13.9107 1055.77 14.22C1056.07 14.524 1056.31 14.9027 1056.48 15.356C1056.65 15.804 1056.74 16.316 1056.74 16.892C1056.74 17.116 1056.71 17.2653 1056.67 17.34C1056.62 17.4147 1056.53 17.452 1056.39 17.452H1050.98C1050.99 17.964 1051.06 18.4093 1051.19 18.788C1051.31 19.1667 1051.49 19.484 1051.71 19.74C1051.94 19.9907 1052.2 20.18 1052.51 20.308C1052.82 20.4307 1053.17 20.492 1053.55 20.492C1053.91 20.492 1054.22 20.452 1054.47 20.372C1054.74 20.2867 1054.96 20.196 1055.15 20.1C1055.33 20.004 1055.49 19.916 1055.61 19.836C1055.74 19.7507 1055.85 19.708 1055.94 19.708C1056.06 19.708 1056.15 19.7533 1056.21 19.844L1056.61 20.364ZM1059.84 15.02C1060.1 14.4653 1060.41 14.0333 1060.78 13.724C1061.16 13.4093 1061.61 13.252 1062.15 13.252C1062.32 13.252 1062.48 13.2707 1062.64 13.308C1062.8 13.3453 1062.94 13.404 1063.06 13.484L1062.96 14.548C1062.93 14.6813 1062.85 14.748 1062.72 14.748C1062.64 14.748 1062.54 14.732 1062.39 14.7C1062.25 14.668 1062.08 14.652 1061.9 14.652C1061.65 14.652 1061.42 14.6893 1061.22 14.764C1061.02 14.8387 1060.84 14.9507 1060.68 15.1C1060.52 15.244 1060.38 15.4253 1060.26 15.644C1060.13 15.8573 1060.02 16.1027 1059.92 16.38V21.5H1058.49V13.396H1059.3C1059.46 13.396 1059.56 13.4253 1059.62 13.484C1059.68 13.5427 1059.72 13.644 1059.74 13.788L1059.84 15.02ZM1071.26 13.396L1067.96 21.5H1066.68L1063.37 13.396H1064.53C1064.65 13.396 1064.74 13.4253 1064.82 13.484C1064.89 13.5427 1064.94 13.612 1064.97 13.692L1067.03 18.908C1067.09 19.1053 1067.15 19.2973 1067.2 19.484C1067.24 19.6707 1067.29 19.8573 1067.33 20.044C1067.37 19.8573 1067.42 19.6707 1067.47 19.484C1067.52 19.2973 1067.57 19.1053 1067.64 18.908L1069.72 13.692C1069.76 13.6067 1069.81 13.5373 1069.88 13.484C1069.96 13.4253 1070.05 13.396 1070.15 13.396H1071.26ZM1074.07 13.396V21.5H1072.65V13.396H1074.07ZM1074.37 10.852C1074.37 10.9907 1074.34 11.1213 1074.29 11.244C1074.23 11.3613 1074.16 11.468 1074.06 11.564C1073.97 11.6547 1073.86 11.7267 1073.73 11.78C1073.61 11.8333 1073.48 11.86 1073.34 11.86C1073.2 11.86 1073.07 11.8333 1072.95 11.78C1072.83 11.7267 1072.73 11.6547 1072.64 11.564C1072.55 11.468 1072.47 11.3613 1072.42 11.244C1072.37 11.1213 1072.34 10.9907 1072.34 10.852C1072.34 10.7133 1072.37 10.5827 1072.42 10.46C1072.47 10.332 1072.55 10.2227 1072.64 10.132C1072.73 10.036 1072.83 9.96133 1072.95 9.908C1073.07 9.85467 1073.2 9.828 1073.34 9.828C1073.48 9.828 1073.61 9.85467 1073.73 9.908C1073.86 9.96133 1073.97 10.036 1074.06 10.132C1074.16 10.2227 1074.23 10.332 1074.29 10.46C1074.34 10.5827 1074.37 10.7133 1074.37 10.852ZM1082.05 14.836C1082.01 14.8947 1081.96 14.94 1081.92 14.972C1081.88 15.004 1081.82 15.02 1081.75 15.02C1081.67 15.02 1081.58 14.988 1081.48 14.924C1081.39 14.8547 1081.27 14.78 1081.12 14.7C1080.98 14.62 1080.81 14.548 1080.6 14.484C1080.4 14.4147 1080.15 14.38 1079.85 14.38C1079.45 14.38 1079.1 14.452 1078.79 14.596C1078.49 14.7347 1078.23 14.9373 1078.03 15.204C1077.82 15.4707 1077.67 15.7933 1077.56 16.172C1077.46 16.5507 1077.41 16.9747 1077.41 17.444C1077.41 17.9347 1077.47 18.372 1077.58 18.756C1077.69 19.1347 1077.85 19.4547 1078.05 19.716C1078.26 19.972 1078.51 20.1693 1078.79 20.308C1079.09 20.4413 1079.41 20.508 1079.78 20.508C1080.12 20.508 1080.41 20.468 1080.63 20.388C1080.86 20.3027 1081.04 20.2093 1081.19 20.108C1081.33 20.0067 1081.46 19.916 1081.55 19.836C1081.65 19.7507 1081.75 19.708 1081.85 19.708C1081.97 19.708 1082.06 19.7533 1082.12 19.844L1082.52 20.364C1082.35 20.5827 1082.15 20.7693 1081.92 20.924C1081.7 21.0787 1081.45 21.2093 1081.19 21.316C1080.94 21.4173 1080.67 21.492 1080.39 21.54C1080.1 21.588 1079.81 21.612 1079.52 21.612C1079.01 21.612 1078.54 21.5187 1078.11 21.332C1077.67 21.1453 1077.3 20.876 1076.98 20.524C1076.66 20.1667 1076.41 19.7293 1076.23 19.212C1076.04 18.6947 1075.95 18.1053 1075.95 17.444C1075.95 16.8413 1076.04 16.284 1076.2 15.772C1076.37 15.26 1076.62 14.82 1076.94 14.452C1077.26 14.0787 1077.66 13.788 1078.13 13.58C1078.6 13.372 1079.15 13.268 1079.76 13.268C1080.33 13.268 1080.83 13.3613 1081.27 13.548C1081.7 13.7293 1082.09 13.988 1082.43 14.324L1082.05 14.836ZM1089.33 16.564C1089.33 16.2333 1089.29 15.932 1089.19 15.66C1089.1 15.3827 1088.96 15.1453 1088.78 14.948C1088.61 14.7453 1088.39 14.5907 1088.13 14.484C1087.88 14.372 1087.59 14.316 1087.26 14.316C1086.58 14.316 1086.04 14.516 1085.64 14.916C1085.24 15.3107 1085 15.86 1084.9 16.564H1089.33ZM1090.49 20.364C1090.31 20.5773 1090.1 20.764 1089.85 20.924C1089.61 21.0787 1089.34 21.2067 1089.06 21.308C1088.78 21.4093 1088.5 21.484 1088.2 21.532C1087.9 21.5853 1087.6 21.612 1087.31 21.612C1086.75 21.612 1086.23 21.5187 1085.76 21.332C1085.29 21.14 1084.88 20.8627 1084.53 20.5C1084.19 20.132 1083.93 19.6787 1083.73 19.14C1083.54 18.6013 1083.45 17.9827 1083.45 17.284C1083.45 16.7187 1083.53 16.1907 1083.7 15.7C1083.88 15.2093 1084.13 14.7853 1084.45 14.428C1084.78 14.0653 1085.18 13.7827 1085.65 13.58C1086.11 13.372 1086.64 13.268 1087.23 13.268C1087.71 13.268 1088.16 13.3507 1088.57 13.516C1088.99 13.676 1089.35 13.9107 1089.65 14.22C1089.95 14.524 1090.19 14.9027 1090.36 15.356C1090.53 15.804 1090.61 16.316 1090.61 16.892C1090.61 17.116 1090.59 17.2653 1090.54 17.34C1090.49 17.4147 1090.4 17.452 1090.27 17.452H1084.85C1084.87 17.964 1084.94 18.4093 1085.06 18.788C1085.19 19.1667 1085.37 19.484 1085.59 19.74C1085.81 19.9907 1086.08 20.18 1086.39 20.308C1086.7 20.4307 1087.05 20.492 1087.43 20.492C1087.79 20.492 1088.09 20.452 1088.35 20.372C1088.61 20.2867 1088.83 20.196 1089.02 20.1C1089.21 20.004 1089.36 19.916 1089.49 19.836C1089.61 19.7507 1089.72 19.708 1089.81 19.708C1089.93 19.708 1090.02 19.7533 1090.09 19.844L1090.49 20.364ZM1096.78 9.236H1097.89V24.292H1096.78V9.236ZM1108.29 15.98C1108.73 15.98 1109.12 15.9213 1109.45 15.804C1109.79 15.6867 1110.08 15.524 1110.31 15.316C1110.54 15.1027 1110.72 14.8493 1110.84 14.556C1110.95 14.2627 1111.01 13.94 1111.01 13.588C1111.01 12.8573 1110.79 12.2867 1110.33 11.876C1109.89 11.4653 1109.2 11.26 1108.29 11.26H1106.45V15.98H1108.29ZM1108.29 10.036C1109.01 10.036 1109.64 10.1213 1110.17 10.292C1110.71 10.4573 1111.16 10.6947 1111.51 11.004C1111.86 11.3133 1112.12 11.6867 1112.29 12.124C1112.47 12.5613 1112.56 13.0493 1112.56 13.588C1112.56 14.1213 1112.46 14.6093 1112.28 15.052C1112.09 15.4947 1111.82 15.876 1111.45 16.196C1111.1 16.516 1110.65 16.7667 1110.12 16.948C1109.59 17.124 1108.98 17.212 1108.29 17.212H1106.45V21.5H1104.9V10.036H1108.29ZM1115.37 15.02C1115.63 14.4653 1115.94 14.0333 1116.31 13.724C1116.69 13.4093 1117.14 13.252 1117.68 13.252C1117.85 13.252 1118.02 13.2707 1118.17 13.308C1118.33 13.3453 1118.47 13.404 1118.59 13.484L1118.49 14.548C1118.46 14.6813 1118.38 14.748 1118.25 14.748C1118.18 14.748 1118.07 14.732 1117.92 14.7C1117.78 14.668 1117.62 14.652 1117.43 14.652C1117.18 14.652 1116.95 14.6893 1116.75 14.764C1116.55 14.8387 1116.37 14.9507 1116.21 15.1C1116.06 15.244 1115.91 15.4253 1115.79 15.644C1115.66 15.8573 1115.55 16.1027 1115.45 16.38V21.5H1114.02V13.396H1114.83C1114.99 13.396 1115.1 13.4253 1115.15 13.484C1115.21 13.5427 1115.25 13.644 1115.27 13.788L1115.37 15.02ZM1121.35 13.396V21.5H1119.93V13.396H1121.35ZM1121.65 10.852C1121.65 10.9907 1121.63 11.1213 1121.57 11.244C1121.51 11.3613 1121.44 11.468 1121.34 11.564C1121.25 11.6547 1121.14 11.7267 1121.01 11.78C1120.89 11.8333 1120.76 11.86 1120.62 11.86C1120.48 11.86 1120.35 11.8333 1120.23 11.78C1120.11 11.7267 1120.01 11.6547 1119.92 11.564C1119.83 11.468 1119.76 11.3613 1119.7 11.244C1119.65 11.1213 1119.62 10.9907 1119.62 10.852C1119.62 10.7133 1119.65 10.5827 1119.7 10.46C1119.76 10.332 1119.83 10.2227 1119.92 10.132C1120.01 10.036 1120.11 9.96133 1120.23 9.908C1120.35 9.85467 1120.48 9.828 1120.62 9.828C1120.76 9.828 1120.89 9.85467 1121.01 9.908C1121.14 9.96133 1121.25 10.036 1121.34 10.132C1121.44 10.2227 1121.51 10.332 1121.57 10.46C1121.63 10.5827 1121.65 10.7133 1121.65 10.852ZM1130.63 13.396L1127.33 21.5H1126.05L1122.75 13.396H1123.91C1124.02 13.396 1124.12 13.4253 1124.19 13.484C1124.27 13.5427 1124.32 13.612 1124.35 13.692L1126.4 18.908C1126.47 19.1053 1126.52 19.2973 1126.57 19.484C1126.62 19.6707 1126.66 19.8573 1126.71 20.044C1126.75 19.8573 1126.79 19.6707 1126.84 19.484C1126.89 19.2973 1126.95 19.1053 1127.02 18.908L1129.1 13.692C1129.13 13.6067 1129.18 13.5373 1129.26 13.484C1129.33 13.4253 1129.42 13.396 1129.52 13.396H1130.63ZM1136.16 17.852C1135.5 17.8733 1134.94 17.9267 1134.48 18.012C1134.02 18.092 1133.65 18.1987 1133.35 18.332C1133.06 18.4653 1132.85 18.6227 1132.72 18.804C1132.59 18.9853 1132.53 19.188 1132.53 19.412C1132.53 19.6253 1132.56 19.8093 1132.63 19.964C1132.7 20.1187 1132.8 20.2467 1132.91 20.348C1133.04 20.444 1133.18 20.516 1133.34 20.564C1133.5 20.6067 1133.68 20.628 1133.86 20.628C1134.12 20.628 1134.34 20.604 1134.55 20.556C1134.76 20.5027 1134.96 20.428 1135.14 20.332C1135.32 20.236 1135.5 20.1213 1135.66 19.988C1135.84 19.8547 1136 19.7027 1136.16 19.532V17.852ZM1131.56 14.54C1132.01 14.108 1132.49 13.7853 1133.01 13.572C1133.53 13.3587 1134.1 13.252 1134.73 13.252C1135.18 13.252 1135.58 13.3267 1135.94 13.476C1136.29 13.6253 1136.58 13.8333 1136.82 14.1C1137.06 14.3667 1137.25 14.6893 1137.37 15.068C1137.49 15.4467 1137.55 15.8627 1137.55 16.316V21.5H1136.92C1136.78 21.5 1136.68 21.4787 1136.6 21.436C1136.53 21.388 1136.47 21.2973 1136.42 21.164L1136.26 20.396C1136.05 20.5933 1135.84 20.7693 1135.64 20.924C1135.44 21.0733 1135.22 21.2013 1135 21.308C1134.78 21.4093 1134.54 21.4867 1134.28 21.54C1134.03 21.5987 1133.75 21.628 1133.44 21.628C1133.13 21.628 1132.83 21.5853 1132.55 21.5C1132.28 21.4093 1132.03 21.276 1131.82 21.1C1131.62 20.924 1131.46 20.7027 1131.34 20.436C1131.22 20.164 1131.16 19.844 1131.16 19.476C1131.16 19.156 1131.25 18.8493 1131.42 18.556C1131.6 18.2573 1131.89 17.9933 1132.28 17.764C1132.68 17.5347 1133.19 17.348 1133.82 17.204C1134.46 17.0547 1135.24 16.9693 1136.16 16.948V16.316C1136.16 15.6867 1136.02 15.212 1135.75 14.892C1135.48 14.5667 1135.08 14.404 1134.56 14.404C1134.21 14.404 1133.91 14.4493 1133.67 14.54C1133.44 14.6253 1133.23 14.724 1133.06 14.836C1132.89 14.9427 1132.74 15.0413 1132.61 15.132C1132.49 15.2173 1132.36 15.26 1132.24 15.26C1132.14 15.26 1132.06 15.236 1131.99 15.188C1131.92 15.1347 1131.86 15.0707 1131.82 14.996L1131.56 14.54ZM1145.36 14.836C1145.32 14.8947 1145.28 14.94 1145.23 14.972C1145.19 15.004 1145.13 15.02 1145.06 15.02C1144.98 15.02 1144.89 14.988 1144.79 14.924C1144.7 14.8547 1144.58 14.78 1144.43 14.7C1144.3 14.62 1144.12 14.548 1143.91 14.484C1143.71 14.4147 1143.46 14.38 1143.16 14.38C1142.76 14.38 1142.41 14.452 1142.11 14.596C1141.8 14.7347 1141.55 14.9373 1141.34 15.204C1141.14 15.4707 1140.98 15.7933 1140.87 16.172C1140.77 16.5507 1140.72 16.9747 1140.72 17.444C1140.72 17.9347 1140.78 18.372 1140.89 18.756C1141 19.1347 1141.16 19.4547 1141.36 19.716C1141.57 19.972 1141.82 20.1693 1142.11 20.308C1142.4 20.4413 1142.73 20.508 1143.09 20.508C1143.44 20.508 1143.72 20.468 1143.95 20.388C1144.17 20.3027 1144.35 20.2093 1144.5 20.108C1144.65 20.0067 1144.77 19.916 1144.87 19.836C1144.97 19.7507 1145.07 19.708 1145.16 19.708C1145.28 19.708 1145.37 19.7533 1145.43 19.844L1145.83 20.364C1145.66 20.5827 1145.46 20.7693 1145.23 20.924C1145.01 21.0787 1144.77 21.2093 1144.51 21.316C1144.25 21.4173 1143.98 21.492 1143.7 21.54C1143.42 21.588 1143.13 21.612 1142.83 21.612C1142.33 21.612 1141.86 21.5187 1141.42 21.332C1140.99 21.1453 1140.61 20.876 1140.29 20.524C1139.97 20.1667 1139.72 19.7293 1139.54 19.212C1139.36 18.6947 1139.27 18.1053 1139.27 17.444C1139.27 16.8413 1139.35 16.284 1139.51 15.772C1139.68 15.26 1139.93 14.82 1140.25 14.452C1140.58 14.0787 1140.97 13.788 1141.44 13.58C1141.92 13.372 1142.46 13.268 1143.07 13.268C1143.64 13.268 1144.15 13.3613 1144.58 13.548C1145.02 13.7293 1145.4 13.988 1145.74 14.324L1145.36 14.836ZM1154.35 13.396L1149.83 23.892C1149.79 23.9987 1149.73 24.084 1149.65 24.148C1149.58 24.212 1149.47 24.244 1149.32 24.244H1148.27L1149.75 21.028L1146.4 13.396H1147.63C1147.76 13.396 1147.85 13.428 1147.92 13.492C1148 13.5507 1148.05 13.6173 1148.07 13.692L1150.24 18.796C1150.33 19.02 1150.4 19.2547 1150.46 19.5C1150.53 19.2493 1150.61 19.012 1150.7 18.788L1152.8 13.692C1152.83 13.6067 1152.89 13.5373 1152.96 13.484C1153.04 13.4253 1153.13 13.396 1153.23 13.396H1154.35ZM1163.04 15.98C1163.48 15.98 1163.87 15.9213 1164.2 15.804C1164.54 15.6867 1164.83 15.524 1165.06 15.316C1165.29 15.1027 1165.47 14.8493 1165.59 14.556C1165.7 14.2627 1165.76 13.94 1165.76 13.588C1165.76 12.8573 1165.54 12.2867 1165.08 11.876C1164.64 11.4653 1163.95 11.26 1163.04 11.26H1161.2V15.98H1163.04ZM1163.04 10.036C1163.76 10.036 1164.39 10.1213 1164.92 10.292C1165.46 10.4573 1165.91 10.6947 1166.26 11.004C1166.61 11.3133 1166.87 11.6867 1167.04 12.124C1167.22 12.5613 1167.31 13.0493 1167.31 13.588C1167.31 14.1213 1167.21 14.6093 1167.03 15.052C1166.84 15.4947 1166.57 15.876 1166.2 16.196C1165.85 16.516 1165.4 16.7667 1164.87 16.948C1164.34 17.124 1163.73 17.212 1163.04 17.212H1161.2V21.5H1159.65V10.036H1163.04ZM1171.92 13.268C1172.51 13.268 1173.04 13.3667 1173.52 13.564C1173.99 13.7613 1174.4 14.0413 1174.74 14.404C1175.07 14.7667 1175.33 15.2067 1175.5 15.724C1175.68 16.236 1175.78 16.8093 1175.78 17.444C1175.78 18.084 1175.68 18.66 1175.5 19.172C1175.33 19.684 1175.07 20.1213 1174.74 20.484C1174.4 20.8467 1173.99 21.1267 1173.52 21.324C1173.04 21.516 1172.51 21.612 1171.92 21.612C1171.32 21.612 1170.78 21.516 1170.3 21.324C1169.83 21.1267 1169.42 20.8467 1169.09 20.484C1168.75 20.1213 1168.49 19.684 1168.31 19.172C1168.14 18.66 1168.05 18.084 1168.05 17.444C1168.05 16.8093 1168.14 16.236 1168.31 15.724C1168.49 15.2067 1168.75 14.7667 1169.09 14.404C1169.42 14.0413 1169.83 13.7613 1170.3 13.564C1170.78 13.3667 1171.32 13.268 1171.92 13.268ZM1171.92 20.5C1172.72 20.5 1173.32 20.2333 1173.71 19.7C1174.11 19.1613 1174.3 18.412 1174.3 17.452C1174.3 16.4867 1174.11 15.7347 1173.71 15.196C1173.32 14.6573 1172.72 14.388 1171.92 14.388C1171.51 14.388 1171.16 14.4573 1170.86 14.596C1170.56 14.7347 1170.31 14.9347 1170.1 15.196C1169.91 15.4573 1169.76 15.78 1169.66 16.164C1169.56 16.5427 1169.51 16.972 1169.51 17.452C1169.51 18.412 1169.71 19.1613 1170.1 19.7C1170.5 20.2333 1171.11 20.5 1171.92 20.5ZM1179.05 9.716V21.5H1177.63V9.716H1179.05ZM1182.87 13.396V21.5H1181.44V13.396H1182.87ZM1183.17 10.852C1183.17 10.9907 1183.14 11.1213 1183.08 11.244C1183.03 11.3613 1182.95 11.468 1182.86 11.564C1182.77 11.6547 1182.66 11.7267 1182.53 11.78C1182.41 11.8333 1182.28 11.86 1182.14 11.86C1182 11.86 1181.87 11.8333 1181.75 11.78C1181.63 11.7267 1181.53 11.6547 1181.43 11.564C1181.34 11.468 1181.27 11.3613 1181.22 11.244C1181.17 11.1213 1181.14 10.9907 1181.14 10.852C1181.14 10.7133 1181.17 10.5827 1181.22 10.46C1181.27 10.332 1181.34 10.2227 1181.43 10.132C1181.53 10.036 1181.63 9.96133 1181.75 9.908C1181.87 9.85467 1182 9.828 1182.14 9.828C1182.28 9.828 1182.41 9.85467 1182.53 9.908C1182.66 9.96133 1182.77 10.036 1182.86 10.132C1182.95 10.2227 1183.03 10.332 1183.08 10.46C1183.14 10.5827 1183.17 10.7133 1183.17 10.852ZM1190.85 14.836C1190.8 14.8947 1190.76 14.94 1190.72 14.972C1190.68 15.004 1190.62 15.02 1190.54 15.02C1190.46 15.02 1190.37 14.988 1190.28 14.924C1190.18 14.8547 1190.06 14.78 1189.92 14.7C1189.78 14.62 1189.61 14.548 1189.4 14.484C1189.2 14.4147 1188.94 14.38 1188.65 14.38C1188.25 14.38 1187.89 14.452 1187.59 14.596C1187.29 14.7347 1187.03 14.9373 1186.82 15.204C1186.62 15.4707 1186.46 15.7933 1186.36 16.172C1186.26 16.5507 1186.21 16.9747 1186.21 17.444C1186.21 17.9347 1186.26 18.372 1186.37 18.756C1186.49 19.1347 1186.64 19.4547 1186.85 19.716C1187.05 19.972 1187.3 20.1693 1187.59 20.308C1187.88 20.4413 1188.21 20.508 1188.57 20.508C1188.92 20.508 1189.21 20.468 1189.43 20.388C1189.65 20.3027 1189.84 20.2093 1189.98 20.108C1190.13 20.0067 1190.25 19.916 1190.35 19.836C1190.45 19.7507 1190.55 19.708 1190.65 19.708C1190.76 19.708 1190.85 19.7533 1190.92 19.844L1191.32 20.364C1191.14 20.5827 1190.94 20.7693 1190.72 20.924C1190.49 21.0787 1190.25 21.2093 1189.99 21.316C1189.73 21.4173 1189.46 21.492 1189.18 21.54C1188.9 21.588 1188.61 21.612 1188.32 21.612C1187.81 21.612 1187.34 21.5187 1186.9 21.332C1186.47 21.1453 1186.09 20.876 1185.77 20.524C1185.45 20.1667 1185.2 19.7293 1185.02 19.212C1184.84 18.6947 1184.75 18.1053 1184.75 17.444C1184.75 16.8413 1184.83 16.284 1185 15.772C1185.17 15.26 1185.41 14.82 1185.73 14.452C1186.06 14.0787 1186.46 13.788 1186.93 13.58C1187.4 13.372 1187.94 13.268 1188.56 13.268C1189.13 13.268 1189.63 13.3613 1190.06 13.548C1190.5 13.7293 1190.89 13.988 1191.22 14.324L1190.85 14.836ZM1199.84 13.396L1195.32 23.892C1195.27 23.9987 1195.21 24.084 1195.13 24.148C1195.07 24.212 1194.96 24.244 1194.81 24.244H1193.75L1195.23 21.028L1191.89 13.396H1193.12C1193.24 13.396 1193.34 13.428 1193.41 13.492C1193.48 13.5507 1193.53 13.6173 1193.56 13.692L1195.73 18.796C1195.81 19.02 1195.88 19.2547 1195.94 19.5C1196.02 19.2493 1196.1 19.012 1196.18 18.788L1198.29 13.692C1198.32 13.6067 1198.37 13.5373 1198.45 13.484C1198.53 13.4253 1198.61 13.396 1198.71 13.396H1199.84Z" fill="#99A1AF"/>
</svg>
